<?xml version="1.0" standalone="no"?>
<!DOCTYPE svg PUBLIC "-//W3C//DTD SVG 20010904//EN"
 "http://www.w3.org/TR/2001/REC-SVG-20010904/DTD/svg10.dtd">
<svg version="1.0" xmlns="http://www.w3.org/2000/svg"
 width="235.000000pt" height="214.000000pt" viewBox="0 0 235.000000 214.000000"
 preserveAspectRatio="xMidYMid meet">

<g transform="translate(0.000000,214.000000) scale(0.100000,-0.100000)"
fill="#000000" stroke="none">
<path d="M964 2119 c-6 -8 -19 -30 -28 -49 -12 -27 -30 -41 -75 -62 -84 -40
-154 -107 -193 -186 l-33 -67 -1 -162 0 -162 -27 -21 c-35 -28 -43 -77 -24
-135 17 -49 167 -293 223 -362 19 -23 34 -45 34 -48 0 -4 -21 -37 -46 -72 -60
-84 -94 -100 -347 -163 -106 -26 -212 -57 -236 -69 -100 -51 -158 -145 -181
-288 -6 -38 -16 -87 -21 -110 -9 -33 -8 -48 5 -75 32 -67 -16 -63 817 -66
l757 -2 -38 72 c-86 164 -101 361 -41 532 l18 51 -67 32 c-54 26 -73 42 -102
85 l-35 53 47 60 c65 83 206 315 225 370 22 65 19 93 -12 124 l-28 28 0 164
c0 160 -1 166 -29 227 -49 106 -177 206 -349 273 -92 35 -197 49 -213 28z
m196 -544 c110 -28 168 -37 238 -39 88 -1 93 -2 88 -21 -3 -11 -12 -48 -20
-82 l-14 -63 43 0 c91 0 84 -36 -48 -255 -115 -189 -186 -266 -272 -290 -115
-34 -227 2 -310 100 -56 66 -215 317 -232 368 -19 54 1 87 53 87 l36 0 -7 99
c-8 111 -10 107 70 128 80 20 210 9 375 -32z m-220 -780 c50 -27 63 -30 150
-30 84 0 101 3 147 27 l52 27 44 -62 c23 -34 46 -67 49 -72 8 -13 -14 -121
-40 -196 -24 -68 -104 -241 -109 -235 -2 2 -22 66 -44 142 -34 118 -38 145
-30 178 16 67 -13 106 -78 106 -56 0 -90 -65 -62 -119 7 -12 -3 -61 -34 -166
l-43 -150 -50 106 c-51 108 -97 239 -108 308 -6 35 -2 46 41 106 26 36 50 65
54 63 3 -2 31 -17 61 -33z"/>
<path d="M1902 855 c-86 -19 -145 -49 -183 -92 -27 -32 -31 -42 -26 -77 19
-143 332 -212 539 -119 96 43 135 105 105 168 -47 99 -264 159 -435 120z m290
-44 c56 -18 100 -58 96 -90 -4 -30 -51 -65 -112 -83 -53 -16 -259 -16 -312 0
-58 17 -108 54 -112 81 -6 39 46 81 125 101 50 12 268 6 315 -9z"/>
<path d="M1910 768 c0 -8 9 -23 20 -33 11 -10 22 -26 25 -36 4 -11 15 -19 25
-19 17 0 18 4 9 26 -5 15 -8 28 -7 29 2 2 36 0 75 -4 66 -6 74 -5 79 12 3 10
4 20 2 22 -1 1 -54 6 -115 10 -96 6 -113 5 -113 -7z"/>
<path d="M1696 563 c-13 -14 -5 -62 17 -94 28 -42 112 -85 192 -100 77 -14
226 -6 290 17 103 36 165 102 151 160 l-6 24 -46 -35 c-74 -57 -163 -78 -302
-73 -128 5 -183 22 -253 78 -20 16 -39 26 -43 23z"/>
<path d="M1694 386 c-3 -9 -3 -32 0 -51 20 -103 233 -175 422 -142 155 28 250
103 230 183 l-6 24 -46 -35 c-66 -50 -156 -75 -273 -75 -135 0 -217 25 -290
86 -26 22 -32 23 -37 10z"/>
<path d="M1696 215 c-44 -115 134 -215 358 -202 187 11 312 92 291 188 l-7 31
-33 -32 c-120 -116 -450 -116 -571 1 -27 26 -32 28 -38 14z"/>
</g>
</svg>
