<?xml version="1.0" encoding="iso-8859-1"?>
<!-- Generator: Adobe Illustrator 19.0.0, SVG Export Plug-In . SVG Version: 6.00 Build 0)  -->
<svg version="1.1" id="Capa_1" xmlns="http://www.w3.org/2000/svg" xmlns:xlink="http://www.w3.org/1999/xlink" x="0px" y="0px"
	 viewBox="0 0 496 496" style="enable-background:new 0 0 496 496;" xml:space="preserve">
<g>
	<g>
		<path d="M392,384c-8.824,0-16-7.176-16-16c0-8.824,7.176-16,16-16c8.824,0,16,7.176,16,16h16c0-14.864-10.24-27.288-24-30.864V320
			h-16v17.136c-13.76,3.576-24,16-24,30.864c0,17.648,14.352,32,32,32c8.824,0,16,7.176,16,16c0,8.824-7.176,16-16,16
			c-8.824,0-16-7.176-16-16h-16c0,14.864,10.24,27.288,24,30.864V464h16v-17.136c13.76-3.576,24-16,24-30.864
			C424,398.352,409.648,384,392,384z"/>
	</g>
</g>
<g>
	<g>
		<rect x="448" y="384" width="16" height="16"/>
	</g>
</g>
<g>
	<g>
		<rect x="320" y="384" width="16" height="16"/>
	</g>
</g>
<g>
	<g>
		<path d="M400,288.408V32h-48v-8c0-13.232-10.768-24-24-24s-24,10.768-24,24v8h-16v-8c0-13.232-10.768-24-24-24s-24,10.768-24,24v8
			h-16v-8c0-13.232-10.768-24-24-24s-24,10.768-24,24v8h-16v-8c0-13.232-10.768-24-24-24s-24,10.768-24,24v8H96v-8
			C96,10.768,85.232,0,72,0S48,10.768,48,24v8H0v368h288.408c4.104,53.608,48.944,96,103.592,96
			c24.944,0,49.072-8.968,67.936-25.256l-10.456-12.112C433.52,472.416,413.104,480,392,480c-48.52,0-88-39.48-88-88
			c0-48.52,39.48-88,88-88c48.52,0,88,39.48,88,88c0,20.288-6.704,39.344-19.4,55.12l12.472,10.032
			C487.856,438.768,496,415.632,496,392C496,337.352,453.608,292.512,400,288.408z M320,24c0-4.408,3.592-8,8-8c4.408,0,8,3.592,8,8
			v32c0,4.408-3.592,8-8,8c-4.408,0-8-3.592-8-8V24z M256,24c0-4.408,3.592-8,8-8c4.408,0,8,3.592,8,8v32c0,4.408-3.592,8-8,8
			c-4.408,0-8-3.592-8-8V24z M192,24c0-4.408,3.592-8,8-8s8,3.592,8,8v32c0,4.408-3.592,8-8,8s-8-3.592-8-8V24z M128,24
			c0-4.408,3.592-8,8-8s8,3.592,8,8v32c0,4.408-3.592,8-8,8s-8-3.592-8-8V24z M64,24c0-4.408,3.592-8,8-8s8,3.592,8,8v32
			c0,4.408-3.592,8-8,8s-8-3.592-8-8V24z M352,288h-48v-48h48V288z M352,224h-48v-48h48V224z M352,160h-48v-48h48V160z M384,288.408
			c-5.464,0.416-10.8,1.264-16,2.504V96H224v64H32v208h144v-64h160.824c-27.136,17.08-45.832,46.28-48.416,80H16V48h32v8
			c0,13.232,10.768,24,24,24s24-10.768,24-24v-8h16v8c0,13.232,10.768,24,24,24s24-10.768,24-24v-8h16v8c0,13.232,10.768,24,24,24
			s24-10.768,24-24v-8h16v8c0,13.232,10.768,24,24,24s24-10.768,24-24v-8h16v8c0,13.232,10.768,24,24,24s24-10.768,24-24v-8h32
			V288.408z M240,224v-48h48v48H240z M288,240v48h-48v-48H288z M240,160v-48h48v48H240z M176,224v-48h48v48H176z M224,240v48h-48
			v-48H224z M112,288v-48h48v48H112z M160,304v48h-48v-48H160z M112,224v-48h48v48H112z M48,288v-48h48v48H48z M96,304v48H48v-48H96
			z M48,224v-48h48v48H48z"/>
	</g>
</g>
<g>
</g>
<g>
</g>
<g>
</g>
<g>
</g>
<g>
</g>
<g>
</g>
<g>
</g>
<g>
</g>
<g>
</g>
<g>
</g>
<g>
</g>
<g>
</g>
<g>
</g>
<g>
</g>
<g>
</g>
</svg>
