<?xml version="1.0" standalone="no"?>
<!DOCTYPE svg PUBLIC "-//W3C//DTD SVG 20010904//EN"
 "http://www.w3.org/TR/2001/REC-SVG-20010904/DTD/svg10.dtd">
<svg version="1.0" xmlns="http://www.w3.org/2000/svg"
 width="512.000000pt" height="512.000000pt" viewBox="0 0 512.000000 512.000000"
 preserveAspectRatio="xMidYMid meet">

<g transform="translate(0.000000,512.000000) scale(0.100000,-0.100000)"
fill="#000000" stroke="none">
<path d="M102 4659 c-26 -13 -55 -39 -70 -62 -25 -37 -27 -50 -30 -165 -3 -98
0 -134 13 -168 17 -46 71 -100 108 -109 12 -3 187 -5 388 -3 l366 3 36 28 c34
25 42 27 141 27 58 0 107 -3 109 -7 4 -6 496 -1913 523 -2025 6 -27 5 -28 -32
-28 -115 0 -253 -66 -354 -169 -206 -209 -226 -508 -49 -744 92 -124 216 -192
400 -222 l37 -5 -19 -36 c-49 -98 -46 -236 8 -336 35 -64 110 -133 181 -166
48 -23 71 -27 147 -27 82 0 97 3 157 33 161 79 246 255 204 422 -9 36 -23 75
-32 87 l-14 23 799 0 800 0 -20 -45 c-103 -234 54 -500 307 -522 210 -17 388
139 402 351 4 67 -6 115 -43 198 -6 16 1 18 91 18 55 0 114 4 133 10 82 23
141 91 149 170 7 74 -5 117 -45 161 -73 81 90 73 -1675 79 l-1577 5 -28 21
c-41 31 -65 77 -65 128 0 54 22 97 64 128 l33 23 1420 5 1420 5 49 24 c62 31
116 84 142 141 12 25 33 94 48 154 27 109 27 110 8 135 -30 40 -66 49 -99 25
-22 -17 -33 -42 -59 -138 -35 -130 -60 -168 -124 -187 -23 -6 -443 -9 -1252
-7 -1211 3 -1217 3 -1244 24 -15 11 -36 31 -46 45 -14 20 -458 1714 -458 1749
0 6 87 10 244 10 134 0 252 3 261 6 26 10 44 62 33 94 -14 41 -46 50 -183 50
l-124 0 -10 38 c-5 20 -37 143 -71 272 -34 129 -70 254 -81 277 -28 58 -95
116 -163 142 -50 19 -77 21 -240 21 -159 0 -185 2 -197 17 -34 40 -65 43 -426
43 -336 0 -350 -1 -391 -21z m728 -148 c12 -23 13 -180 2 -199 -7 -9 -82 -12
-343 -10 l-334 3 -3 99 c-2 64 1 103 9 112 9 11 70 14 335 14 309 0 324 -1
334 -19z m490 -60 c19 -10 43 -29 53 -43 16 -22 146 -488 147 -526 0 -10 -15
-12 -57 -10 l-58 3 -56 218 c-41 160 -62 224 -78 240 -19 20 -34 22 -151 25
l-130 4 0 54 0 54 148 0 c124 0 153 -3 182 -19z m425 -2491 c7 -19 16 -43 20
-52 6 -16 0 -18 -54 -18 -176 0 -312 -133 -312 -305 0 -89 26 -152 90 -216 98
-97 -62 -89 1706 -89 1709 0 1595 4 1595 -60 0 -56 -23 -62 -247 -57 -109 2
-224 9 -255 16 -47 9 -72 8 -130 -4 -111 -23 -1967 -22 -2077 1 -68 14 -82 14
-151 0 -88 -18 -223 -21 -300 -6 -224 42 -382 265 -342 480 37 200 208 355
385 347 57 -2 59 -3 72 -37z m363 -952 c77 -37 131 -138 118 -221 -30 -189
-243 -260 -377 -127 -75 75 -88 173 -33 267 59 102 180 135 292 81z m2233 1
c72 -36 119 -118 119 -205 -1 -113 -110 -214 -230 -214 -51 0 -133 42 -165 84
-146 192 63 444 276 335z"/>
<path d="M2226 3849 c-34 -27 -36 -77 -3 -107 l23 -22 1338 0 1337 0 24 -25
c14 -13 25 -32 25 -42 0 -10 -65 -274 -145 -587 -130 -507 -144 -571 -133
-594 23 -47 105 -56 128 -13 15 29 300 1153 300 1185 0 88 -75 190 -156 214
-32 9 -354 12 -1376 12 l-1335 0 -27 -21z"/>
<path d="M2045 3365 c-14 -13 -25 -31 -25 -39 0 -32 223 -922 236 -943 29 -46
103 -39 126 11 8 20 6 42 -10 108 -11 46 -62 254 -113 463 -99 405 -106 425
-164 425 -14 0 -37 -11 -50 -25z"/>
<path d="M2792 3367 c-29 -31 -29 -30 13 -543 35 -427 35 -429 61 -451 38 -35
91 -27 114 17 7 14 0 144 -25 457 -20 241 -38 453 -41 471 -11 68 -79 95 -122
49z"/>
<path d="M3535 3365 c-14 -13 -25 -30 -25 -37 0 -7 -16 -202 -35 -433 -43
-515 -42 -498 -9 -524 33 -26 65 -27 95 -2 22 18 24 33 60 467 21 247 38 462
38 477 1 35 -39 77 -74 77 -14 0 -37 -11 -50 -25z"/>
<path d="M4289 3380 c-9 -5 -21 -22 -27 -37 -19 -47 -222 -891 -222 -921 0
-78 109 -98 138 -25 19 48 222 892 222 923 0 50 -67 86 -111 60z"/>
</g>
</svg>
