<?xml version="1.0" standalone="no"?>
<!DOCTYPE svg PUBLIC "-//W3C//DTD SVG 20010904//EN"
 "http://www.w3.org/TR/2001/REC-SVG-20010904/DTD/svg10.dtd">
<svg version="1.0" xmlns="http://www.w3.org/2000/svg"
 width="360.000000pt" height="360.000000pt" viewBox="0 0 360.000000 360.000000"
 preserveAspectRatio="xMidYMid meet">

<g transform="translate(0.000000,360.000000) scale(0.100000,-0.100000)"
fill="#000000" stroke="none">
<path d="M885 2825 c-42 -41 -29 -95 26 -114 18 -6 97 -11 178 -11 l146 0 189
-757 c104 -417 194 -768 199 -780 5 -12 23 -27 40 -33 20 -6 242 -10 648 -10
l618 0 26 23 c35 29 38 83 5 109 -21 17 -55 18 -610 18 -458 0 -590 3 -598 13
-6 6 -20 50 -32 97 -11 47 -23 93 -26 103 -5 16 30 17 649 17 l654 0 21 23
c15 16 49 138 136 484 64 254 116 469 116 478 0 9 -11 27 -25 40 l-24 25 -889
0 c-700 0 -892 3 -899 13 -6 6 -23 63 -38 125 -15 62 -36 123 -47 137 l-19 25
-210 0 c-210 0 -210 0 -234 -25z"/>
<path d="M571 2164 c-28 -35 -26 -69 4 -99 l24 -25 304 0 c283 0 306 1 328 19
32 26 32 86 0 112 -22 18 -45 19 -331 19 l-309 0 -20 -26z"/>
<path d="M361 1913 c-11 -10 -24 -32 -27 -50 -5 -26 -1 -37 19 -57 l26 -26
451 0 c437 0 451 1 470 20 30 30 27 83 -6 109 -26 21 -37 21 -469 21 -407 0
-444 -1 -464 -17z"/>
<path d="M725 1660 c-51 -20 -65 -85 -26 -123 21 -21 28 -22 310 -25 321 -3
354 1 367 54 9 37 -6 76 -36 91 -29 15 -580 18 -615 3z"/>
<path d="M1754 1030 c-47 -24 -84 -81 -84 -131 0 -81 68 -149 149 -149 157 0
210 206 71 278 -54 27 -83 28 -136 2z"/>
<path d="M2685 1036 c-17 -7 -43 -28 -58 -45 -82 -98 -14 -241 115 -241 154 0
205 207 68 278 -50 25 -81 27 -125 8z"/>
</g>
</svg>
