<?xml version="1.0" standalone="no"?>
<!DOCTYPE svg PUBLIC "-//W3C//DTD SVG 20010904//EN"
 "http://www.w3.org/TR/2001/REC-SVG-20010904/DTD/svg10.dtd">
<svg version="1.0" xmlns="http://www.w3.org/2000/svg"
 width="1590.000000pt" height="1019.000000pt" viewBox="0 0 1590.000000 1019.000000"
 preserveAspectRatio="xMidYMid meet">

<g transform="translate(0.000000,1019.000000) scale(0.100000,-0.100000)"
fill="#000000" stroke="none">
<path d="M11995 10157 c-64 -22 -97 -42 -141 -89 -23 -24 -493 -585 -1046
-1248 -552 -663 -2279 -2735 -3837 -4605 -1559 -1870 -2838 -3404 -2843 -3410
-5 -6 -709 691 -1806 1787 -1477 1476 -1807 1801 -1852 1824 -48 25 -66 29
-140 29 -73 0 -93 -4 -142 -28 -147 -72 -215 -246 -157 -404 20 -56 93 -130
1963 -2001 2171 -2173 1994 -2007 2140 -2006 78 1 145 24 198 69 16 14 1826
2180 4020 4813 2797 3356 3998 4803 4017 4842 34 72 36 181 4 251 -29 64 -87
126 -147 156 -61 31 -169 40 -231 20z"/>
<path d="M15473 10151 c-28 -9 -67 -29 -86 -44 -19 -14 -1341 -1593 -2938
-3509 -1597 -1916 -3337 -4003 -3867 -4638 -530 -635 -966 -1156 -971 -1158
-4 -1 -200 188 -435 420 -489 485 -500 493 -631 492 -93 -1 -165 -34 -229
-105 -54 -60 -80 -131 -79 -217 1 -124 1 -125 636 -763 637 -640 617 -623 753
-623 60 0 81 5 137 32 l66 33 4006 4807 c2203 2643 4015 4826 4027 4850 32 67
35 163 8 237 -30 81 -113 163 -189 188 -68 22 -142 21 -208 -2z"/>
</g>
</svg>
