<?xml version="1.0" encoding="iso-8859-1"?>
<!-- Generator: Adobe Illustrator 19.0.0, SVG Export Plug-In . SVG Version: 6.00 Build 0)  -->
<svg version="1.1" id="Capa_1" xmlns="http://www.w3.org/2000/svg" xmlns:xlink="http://www.w3.org/1999/xlink" x="0px" y="0px"
	 viewBox="0 0 444 444" style="enable-background:new 0 0 444 444;" xml:space="preserve">
<g>
	<g>
		<path d="M424.9,144H404v136.6c0,21.7-17.5,39.3-39.1,39.4H60v24.4C60,355,68.6,364,79.1,364h345.8c10.5,0,19.1-9,19.1-19.6v-181
			C444,152.8,435.5,144.1,424.9,144z"/>
	</g>
</g>
<g>
	<g>
		<path d="M42.6,110.5c-6.1,0-11,4.9-11,11s4.9,11,11,11c6.1,0,11-4.9,11-11S48.7,110.5,42.6,110.5z"/>
	</g>
</g>
<g>
	<g>
		<path d="M341.3,246.8c-6.1,0-11,4.9-11,11c0,6.1,4.9,11,11,11c6.1-0.1,11-5,11-11C352.3,251.7,347.4,246.8,341.3,246.8z"/>
	</g>
</g>
<g>
	<g>
		<path d="M192,106.8c-46,0-83.4,37.4-83.4,83.4s37.3,83.4,83.4,83.4c46-0.1,83.4-37.4,83.4-83.4S238,106.8,192,106.8z M201,249.4v4
			c0,5.5-4.5,10-10,10s-10-4.5-10-10v-4.8c-15.1-4.8-25.4-18.8-25.3-34.7c0-0.1,0-0.1,0-0.2c0-5.4,4.4-9.8,9.8-9.8
			c5.5,0,10,4.5,10,10c0,9.1,7.3,16.4,16.4,16.5c9.1,0.1,16.5-7.3,16.6-16.4c0.1-9.1-7.3-16.5-16.4-16.6
			c-15.9,0-29.9-10.2-34.7-25.3c-6.1-19.2,4.4-39.7,23.6-45.9v-3.8c0-5.5,4.5-10,10-10s10,4.5,10,10v3c16.3,4,27.8,18.7,27.7,35.5
			c-0.1,5.6-4.6,10-10.2,10c-5.5,0-10-4.5-10-10c0-9.1-7.4-16.5-16.5-16.5c-0.1,0-0.2,0-0.3,0c-9.1,0.1-16.4,7.6-16.3,16.7
			c0.1,9.1,7.6,16.4,16.7,16.3c16.8,0,31.4,11.4,35.5,27.7C232.5,224.7,220.6,244.5,201,249.4z"/>
	</g>
</g>
<g>
	<g>
		<path d="M364.9,80H19.1C8.6,80,0,89,0,99.6v181c0,10.6,8.5,19.3,19.1,19.4h345.8c10.6-0.2,19.1-8.8,19.1-19.4v-181
			C384,89,375.4,80,364.9,80z M42.6,152.6c-17.1,0-31-13.9-31-31c0-17.1,13.9-31,31-31c17.1,0,31,13.9,31,31
			C73.6,138.7,59.7,152.6,42.6,152.6z M192,293.6c-57.2,0-103.4-46.4-103.4-103.5C88.6,133,134.9,86.7,192,86.7
			c57.1,0.1,103.3,46.3,103.4,103.4C295.4,247.3,249.2,293.6,192,293.6z M341.3,288.8c-17.1,0-31-13.9-31-31c0-17.1,13.9-31,31-31
			c17.1,0.1,31,13.9,31,31C372.3,274.9,358.4,288.8,341.3,288.8z"/>
	</g>
</g>
<g>
</g>
<g>
</g>
<g>
</g>
<g>
</g>
<g>
</g>
<g>
</g>
<g>
</g>
<g>
</g>
<g>
</g>
<g>
</g>
<g>
</g>
<g>
</g>
<g>
</g>
<g>
</g>
<g>
</g>
</svg>
