<?xml version="1.0" standalone="no"?>
<!DOCTYPE svg PUBLIC "-//W3C//DTD SVG 20010904//EN"
 "http://www.w3.org/TR/2001/REC-SVG-20010904/DTD/svg10.dtd">
<svg version="1.0" xmlns="http://www.w3.org/2000/svg"
 width="512.000000pt" height="512.000000pt" viewBox="0 0 512.000000 512.000000"
 preserveAspectRatio="xMidYMid meet">

<g transform="translate(0.000000,512.000000) scale(0.100000,-0.100000)"
fill="#000000" stroke="none">
<path d="M2325 4252 c-121 -42 -170 -117 -186 -283 -16 -171 -12 -162 -78
-203 l-59 -36 -121 55 c-106 48 -128 55 -184 55 -69 0 -145 -30 -185 -73 -32
-34 -211 -356 -223 -402 -6 -22 -9 -63 -6 -91 10 -98 53 -151 205 -259 l71
-50 0 -85 0 -85 -71 -50 c-152 -108 -195 -161 -205 -259 -3 -28 0 -69 6 -91
12 -46 191 -368 223 -402 40 -43 116 -73 185 -73 56 0 78 7 184 55 l121 55 59
-36 c66 -41 63 -33 78 -201 14 -154 58 -230 161 -277 41 -19 63 -21 260 -21
l215 0 57 28 c100 49 140 128 153 302 9 128 10 129 75 169 l58 36 121 -55
c105 -48 128 -55 183 -55 70 0 147 30 185 72 33 35 212 357 224 403 14 50 6
132 -16 176 -25 50 -59 83 -162 160 l-93 69 0 80 0 80 93 69 c103 77 137 110
162 160 22 44 30 126 16 176 -13 50 -193 370 -228 407 -38 40 -118 71 -184 71
-45 -1 -77 -11 -178 -57 l-123 -56 -58 36 c-65 40 -66 41 -75 169 -13 174 -53
253 -153 302 -56 27 -61 28 -257 31 -170 2 -207 -1 -250 -16z m370 -857 c181
-47 333 -199 380 -380 87 -335 -168 -665 -513 -665 -146 0 -275 53 -377 155
-167 167 -204 419 -92 629 62 119 197 225 328 260 72 19 201 20 274 1z"/>
<path d="M501 1265 c-110 -24 -226 -89 -311 -175 -250 -250 -252 -649 -5 -895
80 -80 151 -125 257 -163 l73 -27 2012 -3 c2250 -3 2088 -8 2242 70 149 75
272 221 324 383 31 99 31 271 0 370 -52 163 -175 309 -323 383 -153 77 5 72
-2215 71 -1658 0 -2001 -3 -2054 -14z m471 -451 c59 -41 92 -104 92 -174 0
-181 -214 -277 -351 -157 -115 101 -89 274 52 351 21 12 49 15 97 13 56 -2 74
-8 110 -33z m1062 6 c20 -14 49 -43 64 -64 24 -35 27 -49 27 -116 0 -67 -3
-81 -27 -116 -15 -21 -44 -50 -65 -64 -31 -21 -48 -25 -113 -25 -65 0 -82 4
-113 25 -81 55 -118 161 -88 253 14 41 72 104 115 123 50 23 155 14 200 -16z
m1280 0 c20 -14 49 -43 64 -64 24 -35 27 -49 27 -116 0 -67 -3 -81 -27 -116
-15 -21 -44 -50 -65 -64 -31 -21 -48 -25 -113 -25 -65 0 -82 4 -113 25 -81 55
-118 161 -88 253 14 41 72 104 115 123 50 23 155 14 200 -16z m1044 11 c138
-71 163 -248 49 -348 -137 -120 -352 -24 -351 157 0 87 47 161 124 194 50 22
133 20 178 -3z"/>
</g>
</svg>
