<?xml version="1.0" standalone="no"?>
<!DOCTYPE svg PUBLIC "-//W3C//DTD SVG 20010904//EN"
 "http://www.w3.org/TR/2001/REC-SVG-20010904/DTD/svg10.dtd">
<svg version="1.0" xmlns="http://www.w3.org/2000/svg"
 width="512.000000pt" height="512.000000pt" viewBox="0 0 512.000000 512.000000"
 preserveAspectRatio="xMidYMid meet">

<g transform="translate(0.000000,512.000000) scale(0.100000,-0.100000)"
fill="#000000" stroke="none">
<path d="M2475 4674 c-50 -27 -1154 -1133 -1176 -1179 -27 -57 -24 -113 9
-175 35 -67 91 -108 158 -116 101 -12 87 -23 612 499 l482 482 483 -482 c517
-516 511 -511 603 -500 129 14 222 152 184 273 -10 31 -123 150 -579 607 -312
313 -583 577 -603 588 -45 23 -131 25 -173 3z"/>
<path d="M1399 1892 c-91 -48 -139 -155 -109 -248 10 -31 124 -151 584 -613
328 -329 585 -579 603 -587 41 -18 125 -18 166 0 18 8 275 258 603 587 460
462 574 582 584 613 38 121 -55 259 -184 273 -92 11 -86 16 -604 -501 l-482
-481 -478 477 c-328 329 -489 482 -514 493 -56 23 -108 19 -169 -13z"/>
</g>
</svg>
