<?xml version="1.0" encoding="UTF-8"?>
<svg xmlns="http://www.w3.org/2000/svg" id="Layer_1" data-name="Layer 1" viewBox="0 0 512 512" width="512" height="512"><path d="M279.506,119.025a56.025,56.025,0,0,0-56.017,55.951A54.624,54.624,0,0,0,230.508,202h98a54.743,54.743,0,0,0,7.018-27.056A56,56,0,0,0,279.506,119.025ZM314,189.326a5,5,0,1,1-10,0v-7.162a24.3,24.3,0,0,0-12-20.671v22.875a5,5,0,0,1-10,0V158.286c-1-.062-1.282-.1-2-.1a12.714,12.714,0,0,0-2,.1v26.082a5,5,0,0,1-10,0V161.493c-8,4.172-12,11.873-12,20.671v7.162a5,5,0,1,1-10,0v-7.162a33.823,33.823,0,0,1,22-31.731v-8.974a5,5,0,0,1,10,0v6.8a17.612,17.612,0,0,1,2-.074c.716,0,1,.03,2,.074v-6.8a5,5,0,0,1,10,0v8.974a33.823,33.823,0,0,1,22,31.731Z"/><path d="M169,202h10V39.649a15.4,15.4,0,0,0-10,14.823Z"/><polygon points="159 187.669 110.401 202 159 202 159 187.669"/><polygon points="410 116.323 380 124.894 380 202 410 202 410 116.323"/><path d="M349,202V56.49L329.936,37H228.389L210,55.8V202h9.324a63.711,63.711,0,0,1-5.835-27.024,66.017,66.017,0,0,1,132.033,0A63.71,63.71,0,0,1,339.688,202ZM279.506,95.527a26.062,26.062,0,1,1,26.062-26.062A26.093,26.093,0,0,1,279.506,95.527Z"/><circle cx="279.506" cy="69.465" r="16.062"/><path d="M370,202V31.658a15.835,15.835,0,0,0-4.96-11.152A16.2,16.2,0,0,0,353.527,16L204.67,18.157A15.93,15.93,0,0,0,189,33.814V202h11V53.775a5.207,5.207,0,0,1,1.543-3.5l21.138-21.7A5.049,5.049,0,0,1,226.271,27H332.052a5.2,5.2,0,0,1,3.653,1.569l21.756,22.413A5.136,5.136,0,0,1,359,54.463V202Z"/><path d="M421.345,330h-5.651a10.007,10.007,0,0,0,0,20h5.651a10.007,10.007,0,0,0,0-20Z"/><path d="M463.717,295H400.283A24.283,24.283,0,0,0,376,319.283v41.434A24.283,24.283,0,0,0,400.283,385h63.434A24.283,24.283,0,0,0,488,360.717V319.283A24.283,24.283,0,0,0,463.717,295Zm-42.372,65h-5.651c-10.83,0-19.641-9.17-19.641-20s8.811-20,19.641-20h5.651c10.83,0,19.64,9.17,19.64,20S432.175,360,421.345,360Z"/><path d="M104.217,360.422a55.658,55.658,0,1,0,55.657,55.658A55.72,55.72,0,0,0,104.217,360.422ZM112.929,404a5,5,0,0,1,0,10H85.847c-.062,1-.1,1.282-.1,2a12.714,12.714,0,0,0,.1,2h27.082a5,5,0,0,1,0,10H89.054a24.3,24.3,0,0,0,20.671,12h8.162a5,5,0,0,1,0,10h-8.162a33.825,33.825,0,0,1-31.732-22H70.02a5,5,0,1,1,0-10h5.8a17.7,17.7,0,0,1-.073-2c0-.716.029-1,.073-2h-5.8a5,5,0,1,1,0-10h7.973a33.825,33.825,0,0,1,31.732-22h8.162a5,5,0,0,1,0,10h-8.162a24.3,24.3,0,0,0-20.671,12Z"/><path d="M180.313,421a5,5,0,0,1,0-10h3.652a80.17,80.17,0,0,0-19.854-47.787l-2.557,2.594a5.017,5.017,0,0,1-7.118-7.072l2.5-2.553A80.583,80.583,0,0,0,109,336.332v3.65a5,5,0,0,1-10,0v-3.65a79.968,79.968,0,0,0-47.719,19.85l2.662,2.553a5,5,0,1,1-7.07,7.072l-2.555-2.594A80.185,80.185,0,0,0,24.467,411h3.652a5,5,0,1,1,0,10H24.467a80.4,80.4,0,0,0,19.845,47.867l2.547-2.534a4.991,4.991,0,1,1,7.03,7.086l-2.608,2.556A79.98,79.98,0,0,0,99,495.828v-3.651a5,5,0,0,1,10,0v3.651a80.592,80.592,0,0,0,47.936-19.853l-2.446-2.556a5.005,5.005,0,0,1,7.071-7.086l2.553,2.534A80.392,80.392,0,0,0,183.965,421Zm-76.1,60.737a65.658,65.658,0,1,1,65.657-65.657A65.732,65.732,0,0,1,104.217,481.737Z"/><path d="M366,360.639V319.25A34.468,34.468,0,0,1,400.486,285H456V236.542A24.546,24.546,0,0,0,431.7,212H82V328.342A90.466,90.466,0,0,1,178.3,468H431.7c13.39,0,24.3-11.264,24.3-24.653V395H400.486A34.564,34.564,0,0,1,366,360.639ZM100.577,244H97.592a5,5,0,1,1,0-10h2.985a5,5,0,0,1,0,10Zm105.978,0H119.887a5,5,0,0,1,0-10h86.668a5,5,0,0,1,0,10Z"/></svg>
