<svg height="512" viewBox="0 0 46 56" width="512" xmlns="http://www.w3.org/2000/svg"><g id="Page-1" fill="none" fill-rule="evenodd"><g id="034---Zip-File" fill="rgb(0,0,0)" fill-rule="nonzero"><path id="Shape" d="m36 47v5.586l8.586-8.586h-5.586c-1.6568542 0-3 1.3431458-3 3z"/><path id="Shape" d="m25.335 46h-4.667l-3.589 8.616c-.1281888.3082291-.0941204.6600971.0908192.9380087.1849397.2779115.4963591.4452128.8301808.4459913h10c.3341761-.0001113.6462108-.1671406.8316247-.445161.1854139-.2780205.2196989-.6302831.0913753-.938839zm-1.335 8h-2c-.5522847 0-1-.4477153-1-1s.4477153-1 1-1h2c.5522847 0 1 .4477153 1 1s-.4477153 1-1 1z"/><path id="Shape" d="m20.002 44h6 .001l-.001-4h-6z"/><path id="Shape" d="m18 44v-4c0-1.1045695.8954305-2 2-2h2v-38h-19c-1.65685425 0-3 1.34314575-3 3v48c0 1.6568542 1.34314575 3 3 3h12.19c.018-.051.022-.1.042-.154l3.474-8.335c-.4453315-.3759149-.7033935-.9282262-.706-1.511zm1-42h1c.5522847 0 1 .44771525 1 1s-.4477153 1-1 1h-1c-.5522847 0-1-.44771525-1-1s.4477153-1 1-1zm0 4h1c.5522847 0 1 .44771525 1 1s-.4477153 1-1 1h-1c-.5522847 0-1-.44771525-1-1s.4477153-1 1-1zm0 4h1c.5522847 0 1 .4477153 1 1s-.4477153 1-1 1h-1c-.5522847 0-1-.4477153-1-1s.4477153-1 1-1zm0 4h1c.5522847 0 1 .4477153 1 1s-.4477153 1-1 1h-1c-.5522847 0-1-.4477153-1-1s.4477153-1 1-1zm0 4h1c.5522847 0 1 .4477153 1 1s-.4477153 1-1 1h-1c-.5522847 0-1-.4477153-1-1s.4477153-1 1-1zm0 4h1c.5522847 0 1 .4477153 1 1s-.4477153 1-1 1h-1c-.5522847 0-1-.4477153-1-1s.4477153-1 1-1zm0 4h1c.5522847 0 1 .4477153 1 1s-.4477153 1-1 1h-1c-.5522847 0-1-.4477153-1-1s.4477153-1 1-1zm0 4h1c.5522847 0 1 .4477153 1 1s-.4477153 1-1 1h-1c-.5522847 0-1-.4477153-1-1s.4477153-1 1-1zm0 4h1c.5522847 0 1 .4477153 1 1s-.4477153 1-1 1h-1c-.5522847 0-1-.4477153-1-1s.4477153-1 1-1z"/><path id="Shape" d="m43 0h-19v38h2c1.1045695 0 2 .8954305 2 2v4c-.0011106.5818047-.2569042 1.1339535-.7 1.511l3.473 8.335c.021.05.025.1.043.154h3.184v-7c.0033061-2.7600532 2.2399468-4.9966939 5-5h7v-39c0-1.65685425-1.3431458-3-3-3zm-16 34h-1c-.5522847 0-1-.4477153-1-1s.4477153-1 1-1h1c.5522847 0 1 .4477153 1 1s-.4477153 1-1 1zm0-4h-1c-.5522847 0-1-.4477153-1-1s.4477153-1 1-1h1c.5522847 0 1 .4477153 1 1s-.4477153 1-1 1zm0-4h-1c-.5522847 0-1-.4477153-1-1s.4477153-1 1-1h1c.5522847 0 1 .4477153 1 1s-.4477153 1-1 1zm0-4h-1c-.5522847 0-1-.4477153-1-1s.4477153-1 1-1h1c.5522847 0 1 .4477153 1 1s-.4477153 1-1 1zm0-4h-1c-.5522847 0-1-.4477153-1-1s.4477153-1 1-1h1c.5522847 0 1 .4477153 1 1s-.4477153 1-1 1zm0-4h-1c-.5522847 0-1-.4477153-1-1s.4477153-1 1-1h1c.5522847 0 1 .4477153 1 1s-.4477153 1-1 1zm0-4h-1c-.5522847 0-1-.44771525-1-1s.4477153-1 1-1h1c.5522847 0 1 .44771525 1 1s-.4477153 1-1 1zm0-4h-1c-.5522847 0-1-.44771525-1-1s.4477153-1 1-1h1c.5522847 0 1 .44771525 1 1s-.4477153 1-1 1zm17 33c0 .5522847-.4477153 1-1 1s-1-.4477153-1-1v-2c0-.5522847.4477153-1 1-1s1 .4477153 1 1zm0-6c0 .5522847-.4477153 1-1 1s-1-.4477153-1-1v-14c0-.5522847.4477153-1 1-1s1 .4477153 1 1z"/></g></g></svg>